<?xml version="1.0" encoding="UTF-8"?>
<svg width="50px" height="50px" viewBox="0 0 50 50" version="1.1" xmlns="http://www.w3.org/2000/svg" xmlns:xlink="http://www.w3.org/1999/xlink">
    <!-- Generator: Sketch 50.2 (55047) - http://www.bohemiancoding.com/sketch -->
    <title>Rectangle 13</title>
    <desc>Created with Sketch.</desc>
    <defs></defs>
    <g id="Symbols" stroke="none" stroke-width="1" fill="none" fill-rule="evenodd">
        <g id="叉叉">
            <g id="cancel">
                <rect id="Rectangle-13" x="0" y="0" width="50" height="50"></rect>
                <circle id="Oval" fill-opacity="0.6" fill="#FFFFFF" cx="25" cy="25" r="18"></circle>
                <g id="Group" transform="translate(17.000000, 17.000000)" fill="#000000" fill-rule="nonzero">
                    <path d="M9.19094631,7.99998047 L15.7533678,1.43755899 C16.0822107,1.10868479 16.0822107,0.575498595 15.7533678,0.246655648 C15.4244936,-0.0822185493 14.8912761,-0.0822185493 14.5624332,0.246655648 L7.99998047,6.80907713 L1.43755899,0.246655648 C1.10868479,-0.0822185493 0.575498595,-0.0822185493 0.246655648,0.246655648 C-0.0821872993,0.575529845 -0.0822185493,1.10871604 0.246655648,1.43755899 L6.80907713,7.99998047 L0.246655648,14.5624019 C-0.0822185493,14.8912761 -0.0822185493,15.4244623 0.246655648,15.7533053 C0.575529845,16.0821795 1.10871604,16.0821482 1.43755899,15.7533053 L7.99998047,9.19088381 L14.5623707,15.7533053 C14.8912449,16.0821795 15.4244623,16.0821482 15.7533053,15.7533053 C16.0821482,15.4244311 16.0821482,14.8912449 15.7533053,14.5624019 L9.19094631,7.99998047 Z" id="Shape"></path>
                </g>
            </g>
        </g>
    </g>
</svg>